<svg width="16" height="14" viewBox="0 0 16 14" fill="none" xmlns="http://www.w3.org/2000/svg">
<path d="M5.04994 1.677C5.04994 2.154 4.65994 2.544 4.18294 2.544C3.70494 2.544 3.31494 2.155 3.31494 1.677C3.31494 1.199 3.70594 0.809002 4.18294 0.809002C4.65994 0.809002 5.04994 1.2 5.04994 1.677Z" fill="black"/>
<path d="M11.0235 7.92084C11.0735 7.90072 11.1271 7.89091 11.1809 7.892C11.289 7.89253 11.3925 7.93568 11.4689 8.01208C11.5453 8.08848 11.5884 8.19196 11.5889 8.3C11.5884 8.40805 11.5453 8.51152 11.4689 8.58792C11.3925 8.66432 11.289 8.70748 11.1809 8.708C11.0729 8.70748 10.9694 8.66432 10.893 8.58792C10.8166 8.51152 10.7735 8.40805 10.7729 8.3C10.7719 8.24612 10.7817 8.19258 10.8018 8.14259C10.8219 8.09259 10.8519 8.04718 10.89 8.00908C10.9281 7.97097 10.9735 7.94096 11.0235 7.92084Z" fill="black"/>
<path d="M13.4781 5.90219C13.3155 6.06485 13.095 6.15647 12.8649 6.157C12.3879 6.157 11.9969 5.766 11.9969 5.289C12.0076 5.066 12.1038 4.85568 12.2654 4.70164C12.427 4.54761 12.6417 4.46168 12.8649 4.46168C13.0882 4.46168 13.3029 4.54761 13.4645 4.70164C13.6261 4.85568 13.7222 5.066 13.7329 5.289C13.7324 5.51905 13.6408 5.73952 13.4781 5.90219Z" fill="black"/>
<path d="M12.1359 11.195C12.1359 10.718 12.5269 10.328 13.0039 10.328C13.2252 10.341 13.4331 10.4381 13.5852 10.5993C13.7372 10.7606 13.8219 10.9739 13.8219 11.1955C13.8219 11.4171 13.7372 11.6304 13.5852 11.7917C13.4331 11.9529 13.2252 12.05 13.0039 12.063C12.5259 12.063 12.1359 11.672 12.1359 11.195Z" fill="black"/>
<path d="M13.8851 7.29816C14.049 7.13423 14.2711 7.04179 14.5029 7.041C14.7348 7.04153 14.9571 7.13389 15.1211 7.29787C15.2851 7.46185 15.3774 7.6841 15.3779 7.916C15.3772 8.14782 15.2847 8.36992 15.1208 8.53385C14.9569 8.69777 14.7348 8.79021 14.5029 8.791C14.0219 8.791 13.6279 8.397 13.6279 7.916C13.6287 7.68418 13.7212 7.46208 13.8851 7.29816Z" fill="black"/>
<path d="M12.2519 1.364C12.2519 1.842 11.8619 2.232 11.3849 2.232C10.9079 2.232 10.5169 1.842 10.5169 1.364C10.5169 0.886002 10.9079 0.496002 11.3849 0.496002C11.8619 0.496002 12.2519 0.886002 12.2519 1.364Z" fill="black"/>
<path d="M8.59584 4.3889C8.83491 4.14983 9.15885 4.01506 9.49694 4.014C10.2029 4.014 10.7729 4.583 10.7729 5.29C10.7729 5.996 10.2029 6.566 9.49694 6.566C8.79094 6.566 8.22094 5.996 8.22094 5.29C8.222 4.95191 8.35677 4.62797 8.59584 4.3889Z" fill="black"/>
<path d="M4.53194 12.785C4.53194 12.136 5.06294 11.605 5.71194 11.605C6.36094 11.605 6.89194 12.136 6.89194 12.785C6.89194 13.434 6.36094 13.965 5.71194 13.965C5.06294 13.965 4.53194 13.434 4.53194 12.785Z" fill="black"/>
<path d="M2.8634 3.48811C2.75375 3.60228 2.60419 3.66961 2.44603 3.676C2.28787 3.66961 2.13831 3.60228 2.02866 3.48811C1.91901 3.37394 1.85778 3.22179 1.85778 3.0635C1.85778 2.90521 1.91901 2.75305 2.02866 2.63888C2.13831 2.52472 2.28787 2.45739 2.44603 2.451C2.60419 2.45739 2.75375 2.52472 2.8634 2.63888C2.97304 2.75305 3.03427 2.90521 3.03427 3.0635C3.03427 3.22179 2.97304 3.37394 2.8634 3.48811Z" fill="black"/>
<path d="M0.685036 7.95606C0.761441 7.87779 0.865659 7.83284 0.975028 7.831C1.0844 7.83284 1.18862 7.87779 1.26502 7.95606C1.34142 8.03434 1.38383 8.13962 1.38303 8.249C1.38303 8.475 1.19503 8.667 0.975028 8.667C0.755028 8.667 0.567028 8.483 0.567028 8.249C0.566222 8.13962 0.608632 8.03434 0.685036 7.95606Z" fill="black"/>
<path d="M2.25003 4.422C2.72803 4.422 3.11803 4.812 3.11803 5.289C3.11803 5.766 2.72803 6.157 2.25003 6.157C1.77203 6.157 1.38203 5.766 1.38203 5.289C1.38203 4.812 1.77203 4.422 2.25003 4.422Z" fill="black"/>
<path d="M2.42211 10.9711C2.49851 10.8947 2.60198 10.8515 2.71003 10.851C2.81807 10.8515 2.92155 10.8947 2.99795 10.9711C3.07435 11.0475 3.1175 11.151 3.11803 11.259C3.11803 11.479 2.93003 11.667 2.71003 11.667C2.49003 11.667 2.30203 11.488 2.30203 11.259C2.30255 11.151 2.34571 11.0475 2.42211 10.9711Z" fill="black"/>
<path d="M6.65615 5.57912C6.54787 5.6874 6.40116 5.74847 6.24803 5.749C6.0949 5.74847 5.94818 5.6874 5.8399 5.57912C5.73162 5.47084 5.67056 5.32413 5.67003 5.171C5.66923 5.09487 5.68363 5.01935 5.71239 4.94886C5.74115 4.87837 5.7837 4.81433 5.83753 4.7605C5.89136 4.70667 5.9554 4.66412 6.02589 4.63536C6.09638 4.6066 6.1719 4.59219 6.24803 4.593C6.40116 4.59352 6.54787 4.65459 6.65615 4.76287C6.76444 4.87115 6.8255 5.01786 6.82603 5.171C6.8255 5.32413 6.76444 5.47084 6.65615 5.57912Z" fill="black"/>
<path d="M8.41022 3.02419C8.29982 3.13459 8.15016 3.19673 7.99403 3.197C7.67503 3.197 7.40503 2.938 7.40503 2.608C7.40503 2.278 7.67603 2.019 7.99403 2.019C8.31203 2.019 8.58303 2.278 8.58303 2.608C8.58276 2.76413 8.52062 2.91379 8.41022 3.02419Z" fill="black"/>
<path d="M14.1511 2.991C14.1511 3.26493 13.929 3.487 13.6551 3.487C13.3811 3.487 13.1591 3.26493 13.1591 2.991C13.1591 2.71706 13.3811 2.495 13.6551 2.495C13.929 2.495 14.1511 2.71706 14.1511 2.991Z" fill="black"/>
<path d="M4.39404 9.52501C5.09876 9.52501 5.67004 8.95372 5.67004 8.24901C5.67004 7.54429 5.09876 6.97301 4.39404 6.97301C3.68933 6.97301 3.11804 7.54429 3.11804 8.24901C3.11804 8.95372 3.68933 9.52501 4.39404 9.52501Z" fill="black"/>
<path d="M7.76204 9.117C8.24143 9.117 8.63004 8.72838 8.63004 8.249C8.63004 7.76961 8.24143 7.381 7.76204 7.381C7.28266 7.381 6.89404 7.76961 6.89404 8.249C6.89404 8.72838 7.28266 9.117 7.76204 9.117Z" fill="black"/>
<path d="M10.201 11.195C10.201 11.7241 9.77212 12.153 9.24303 12.153C8.71395 12.153 8.28503 11.7241 8.28503 11.195C8.28503 10.6659 8.71395 10.237 9.24303 10.237C9.77212 10.237 10.201 10.6659 10.201 11.195Z" fill="black"/>
</svg>
