<svg width="54" height="38" viewBox="0 0 54 38" fill="none" xmlns="http://www.w3.org/2000/svg">
<path d="M10.7 5.8C15.55 2.45 21 0.800003 27 0.800003C33 0.800003 38.45 2.45 43.3 5.8C48.15 9.15 51.65 13.55 53.8 19C51.7 24.45 48.2 28.9 43.3 32.2C38.45 35.55 33 37.2 27 37.2C21 37.2 15.55 35.55 10.7 32.2C5.85001 28.85 2.35001 24.45 0.200012 19C2.35001 13.55 5.85001 9.1 10.7 5.8ZM18.4 27.6C20.8 30 23.65 31.2 27 31.2C30.35 31.2 33.2 30 35.6 27.6C38 25.2 39.2 22.35 39.2 19C39.2 15.65 38 12.8 35.6 10.4C33.2 8 30.35 6.8 27 6.8C23.65 6.8 20.8 8 18.4 10.4C16 12.8 14.8 15.65 14.8 19C14.8 22.35 16 25.2 18.4 27.6ZM21.85 13.85C23.3 12.45 25 11.7 27 11.7C28.95 11.7 30.7 12.4 32.15 13.85C33.55 15.3 34.3 17 34.3 19C34.3 21 33.6 22.7 32.15 24.15C30.7 25.55 28.95 26.3 27 26.3C25 26.3 23.3 25.6 21.85 24.15C20.45 22.7 19.7 21 19.7 19C19.7 17 20.45 15.3 21.85 13.85Z" fill="#292B5C"/>
</svg>
