<svg width="16" height="16" viewBox="0 0 16 16" fill="none" xmlns="http://www.w3.org/2000/svg">
<path d="M3.00076 10.7594C2.31698 10.6299 1.66416 10.4071 0.861325 10.0545C0.562999 9.92344 0.20422 10.0369 0.0599698 10.3079C-0.0842801 10.5789 0.0406234 10.9048 0.33895 11.0359C1.37322 11.4901 2.21117 11.7558 3.13319 11.8895C3.3446 12.8467 3.80198 13.7313 4.46447 14.4379C5.40215 15.4381 6.67392 16 8 16C9.32608 16 10.5979 15.4381 11.5355 14.4379C12.4732 13.4377 13 12.0812 13 10.6667C13 8.24129 10.7027 4.07318 8.61455 0.911148C8.40681 0.596572 8.20113 0.291954 8 0C7.79887 0.291954 7.59319 0.596572 7.38545 0.911148C6.57052 2.14516 5.72374 3.53241 4.99409 4.9095C3.34695 4.92092 2.3685 4.71649 0.861325 4.05448C0.562999 3.92344 0.20422 4.0369 0.0599698 4.3079C-0.0842801 4.5789 0.0406234 4.90482 0.33895 5.03585C1.83506 5.693 2.92038 5.95552 4.44359 5.99471C4.13593 6.63131 3.86252 7.25623 3.63865 7.85275C2.70037 7.75349 1.90846 7.51442 0.861325 7.05448C0.562999 6.92344 0.20422 7.0369 0.0599698 7.3079C-0.0842801 7.5789 0.0406234 7.90482 0.33895 8.03585C1.43051 8.51531 2.3034 8.7847 3.28723 8.91055C3.10376 9.55704 3 10.1512 3 10.6667C3 10.6976 3.00025 10.7285 3.00076 10.7594ZM4.00519 10.884C4.00174 10.8118 4 10.7393 4 10.6667C4 10.2379 4.10102 9.67478 4.31221 8.99074C4.5644 8.99954 4.82831 9.00188 5.10797 8.99856C6.35655 8.98376 7.10093 8.87106 8.28731 8.51721C8.60215 8.4233 8.77357 8.11533 8.6702 7.82934C8.56682 7.54334 8.2278 7.38762 7.91296 7.48152C6.84242 7.80083 6.21899 7.89522 5.09231 7.90857C4.95688 7.91018 4.82599 7.9104 4.69899 7.90911C4.93565 7.31807 5.22293 6.69217 5.54732 6.04815C5.55754 6.02786 5.56779 6.00757 5.57808 5.98726C6.5607 5.94982 7.25748 5.82437 8.28731 5.51721C8.60215 5.4233 8.77357 5.11533 8.6702 4.82934C8.56682 4.54334 8.2278 4.38762 7.91296 4.48152C7.23632 4.68334 6.73829 4.79531 6.17891 4.85375C6.7504 3.81914 7.37973 2.78803 8 1.83503C8.85949 3.15559 9.73641 4.62612 10.4527 6.04815C10.9243 6.98438 11.3174 7.88233 11.5906 8.69056C11.8681 9.51134 12 10.1767 12 10.6667C12 11.7983 11.5786 12.8835 10.8284 13.6837C10.0783 14.4838 9.06087 14.9333 8 14.9333C6.93913 14.9333 5.92172 14.4838 5.17157 13.6837C4.72128 13.2033 4.38944 12.6203 4.19609 11.9862C4.4832 11.9987 4.78509 12.0024 5.10797 11.9986C6.35655 11.9838 7.10093 11.8711 8.28731 11.5172C8.60215 11.4233 8.77357 11.1153 8.6702 10.8293C8.56682 10.5433 8.2278 10.3876 7.91296 10.4815C6.84242 10.8008 6.21899 10.8952 5.09231 10.9086C4.69651 10.9133 4.33941 10.9062 4.00519 10.884Z" fill="black"/>
<path d="M11.0516 4.99594C12.7267 4.97096 13.7334 5.08615 15.4269 5.48447C15.6806 5.54413 15.9321 5.37559 15.9886 5.10803C16.0452 4.84046 15.8854 4.57519 15.6318 4.51553C13.7924 4.08292 12.6982 3.9675 10.8141 4.00736C10.7137 4.00949 10.6153 4.01325 10.5189 4.0185C10.7019 4.34363 10.8801 4.67017 11.0516 4.99594Z" fill="black"/>
<path d="M12.4215 8.01548C13.3961 8.06615 14.2439 8.20623 15.4269 8.48447C15.6806 8.54413 15.9321 8.37559 15.9886 8.10803C16.0452 7.84046 15.8854 7.57519 15.6318 7.51553C14.2202 7.18352 13.2474 7.03834 12.0197 7.00678C12.1676 7.35033 12.3024 7.68751 12.4215 8.01548Z" fill="black"/>
<path d="M15.4269 11.4845C14.4772 11.2611 13.7434 11.1268 12.9867 11.0562C12.9955 10.927 13 10.7971 13 10.6667C13 10.4741 12.9855 10.2706 12.9578 10.0574C13.7956 10.1287 14.5954 10.2718 15.6318 10.5155C15.8854 10.5752 16.0452 10.8405 15.9886 11.108C15.9321 11.3756 15.6806 11.5441 15.4269 11.4845Z" fill="black"/>
</svg>
