<svg width="44" height="44" viewBox="0 0 44 44" fill="none" xmlns="http://www.w3.org/2000/svg">
<path d="M31.582 17.5283L30.6582 16.8516L29.7666 17.5283C29.4443 17.7646 29.1006 17.5176 29.2188 17.1631L29.5732 16.0674L28.6709 15.3906C28.3916 15.1758 28.499 14.7783 28.8535 14.7783H29.9814L30.3574 13.6074C30.4541 13.2959 30.873 13.2959 30.9697 13.6074L31.3457 14.7783H32.4844C32.8389 14.7783 32.957 15.1758 32.667 15.3906L31.7539 16.0674L32.1084 17.1631C32.2373 17.5176 31.8936 17.7539 31.582 17.5283ZM25.5664 16.626H12.042C11.5586 16.626 11.1826 16.25 11.1826 15.7666C11.1826 15.2725 11.5586 14.8965 12.042 14.8965H25.5664C26.0498 14.8965 26.4365 15.2725 26.4365 15.7666C26.4365 16.25 26.0498 16.626 25.5664 16.626ZM31.582 24.0059L30.6582 23.3291L29.7666 24.0059C29.4443 24.2529 29.1006 23.9951 29.2188 23.6406L29.5732 22.5449L28.6709 21.8682C28.3916 21.6533 28.499 21.2666 28.8535 21.2666H29.9814L30.3574 20.085C30.4541 19.7842 30.873 19.7842 30.9697 20.085L31.3457 21.2666H32.4844C32.8389 21.2666 32.957 21.6533 32.667 21.8682L31.7539 22.5449L32.1084 23.6406C32.2266 23.9951 31.8936 24.2314 31.582 24.0059ZM25.5664 23.125H12.042C11.5586 23.125 11.1826 22.7383 11.1826 22.2549C11.1826 21.7715 11.5586 21.3955 12.042 21.3955H25.5664C26.0498 21.3955 26.4365 21.7715 26.4365 22.2549C26.4365 22.7383 26.0498 23.125 25.5664 23.125ZM31.582 30.5156L30.6582 29.8389L29.7666 30.5156C29.4443 30.7627 29.1006 30.5049 29.2188 30.1504L29.5732 29.0547L28.6709 28.3779C28.3916 28.1631 28.499 27.7764 28.8535 27.7764H29.9814L30.3574 26.5947C30.4541 26.2939 30.873 26.2832 30.9697 26.5947L31.3457 27.7764H32.4844C32.8389 27.7764 32.957 28.1631 32.667 28.3779L31.7539 29.0547L32.1084 30.1504C32.2266 30.5049 31.8936 30.7412 31.582 30.5156ZM25.5664 29.6133H12.042C11.5586 29.6133 11.1826 29.2373 11.1826 28.7539C11.1826 28.2598 11.5586 27.8838 12.042 27.8838H25.5664C26.0498 27.8838 26.4365 28.2598 26.4365 28.7539C26.4365 29.2373 26.0498 29.6133 25.5664 29.6133Z" fill="white"/>
</svg>
