<svg width="9" height="16" viewBox="0 0 9 16" fill="none" xmlns="http://www.w3.org/2000/svg">
<path d="M4.5 7C4.22386 7 4 7.22386 4 7.5V9.56301C3.13739 9.78503 2.5 10.5681 2.5 11.5C2.5 12.6046 3.39543 13.5 4.5 13.5C5.60457 13.5 6.5 12.6046 6.5 11.5C6.5 10.5681 5.86261 9.78503 5 9.56301V7.5C5 7.22386 4.77614 7 4.5 7Z" fill="black"/>
<path d="M3.2 8.39855L2.66751 8.75498C1.7801 9.349 1.2 10.357 1.2 11.5C1.2 13.3225 2.67746 14.8 4.5 14.8C6.32254 14.8 7.8 13.3225 7.8 11.5C7.8 10.357 7.2199 9.349 6.33249 8.75498L5.8 8.39855V2.5C5.8 1.78203 5.21797 1.2 4.5 1.2C3.78203 1.2 3.2 1.78203 3.2 2.5V8.39855ZM2 2.5C2 1.11929 3.11929 0 4.5 0C5.88071 0 7 1.11929 7 2.5V7.75777C8.20599 8.56504 9 9.93979 9 11.5C9 13.9853 6.98528 16 4.5 16C2.01472 16 0 13.9853 0 11.5C0 9.93979 0.794014 8.56504 2 7.75777V2.5Z" fill="black"/>
</svg>
