<svg width="50" height="50" viewBox="0 0 50 50" fill="none" xmlns="http://www.w3.org/2000/svg">
<rect width="50" height="50" rx="25" fill="black"/>
<path d="M25 1H24V7H25V1Z" fill="#F2F2F2"/>
<path d="M1 25V26H7V25H1Z" fill="#F2F2F2"/>
<path d="M26 49H25V43H26V49Z" fill="#F2F2F2"/>
<path d="M49 25V24H43V25H49Z" fill="#F2F2F2"/>
<g opacity="0.6">
<path d="M36.9998 4.21533L36.1338 3.71533L34.6338 6.31341L35.4998 6.81341L36.9998 4.21533Z" fill="#F2F2F2"/>
<path d="M12.9998 4.21533L12.1338 4.71533L13.6338 7.31341L14.4998 6.81341L12.9998 4.21533Z" fill="#F2F2F2"/>
<path d="M4.21582 12.9999L3.71582 13.866L6.3139 15.366L6.8139 14.4999L4.21582 12.9999Z" fill="#F2F2F2"/>
<path d="M4.71582 37.866L4.21582 36.9999L6.8139 35.4999L7.3139 36.366L4.71582 37.866Z" fill="#F2F2F2"/>
<path d="M13.0002 45.7847L13.8662 46.2847L15.3662 43.6866L14.5002 43.1866L13.0002 45.7847Z" fill="#F2F2F2"/>
<path d="M37.8662 45.2847L37.0002 45.7847L35.5002 43.1866L36.3662 42.6866L37.8662 45.2847Z" fill="#F2F2F2"/>
<path d="M45.7842 37.0001L46.2842 36.134L43.6861 34.634L43.1861 35.5001L45.7842 37.0001Z" fill="#F2F2F2"/>
<path d="M45.2842 12.134L45.7842 13.0001L43.1861 14.5001L42.6861 13.634L45.2842 12.134Z" fill="#F2F2F2"/>
</g>
<g opacity="0.3">
<path d="M27.5082 1.13138L26.5137 1.02686L26.2001 4.01042L27.1946 4.11495L27.5082 1.13138Z" fill="#F2F2F2"/>
<path d="M22.4916 1.13156L21.4971 1.23608L21.8107 4.21965L22.8052 4.11512L22.4916 1.13156Z" fill="#F2F2F2"/>
<path d="M20.0104 1.52451L19.0322 1.73242L19.656 4.66686L20.6341 4.45895L20.0104 1.52451Z" fill="#F2F2F2"/>
<path d="M16.6328 2.48364L17.5839 2.17463L18.5109 5.0278L17.5599 5.33681L16.6328 2.48364Z" fill="#F2F2F2"/>
<path d="M15.2387 3.07495L14.3252 3.48169L15.5454 6.22233L16.459 5.81559L15.2387 3.07495Z" fill="#F2F2F2"/>
<path d="M10.084 6.17139L10.893 5.5836L12.6564 8.01065L11.8473 8.59844L10.084 6.17139Z" fill="#F2F2F2"/>
<path d="M8.94041 7.16461L8.19727 7.83374L10.2047 10.0632L10.9478 9.39404L8.94041 7.16461Z" fill="#F2F2F2"/>
<path d="M6.49512 9.68408L7.16425 8.94094L9.39368 10.9483L8.72455 11.6915L6.49512 9.68408Z" fill="#F2F2F2"/>
<path d="M5.58388 10.8931L4.99609 11.7021L7.42314 13.4655L8.01093 12.6565L5.58388 10.8931Z" fill="#F2F2F2"/>
<path d="M2.66797 16.1519L3.07471 15.2383L5.81534 16.4585L5.40861 17.3721L2.66797 16.1519Z" fill="#F2F2F2"/>
<path d="M2.17425 17.5836L1.86523 18.5347L4.7184 19.4617L5.02742 18.5107L2.17425 17.5836Z" fill="#F2F2F2"/>
<path d="M1.31641 20.9883L1.52432 20.0101L4.45876 20.6339L4.25085 21.612L1.31641 20.9883Z" fill="#F2F2F2"/>
<path d="M1.13187 22.4913L1.02734 23.4858L4.01091 23.7994L4.11544 22.8049L1.13187 22.4913Z" fill="#F2F2F2"/>
<path d="M1.23633 28.5032L1.1318 27.5087L4.11537 27.1951L4.21989 28.1896L1.23633 28.5032Z" fill="#F2F2F2"/>
<path d="M1.52451 29.9899L1.73242 30.968L4.66686 30.3443L4.45895 29.3661L1.52451 29.9899Z" fill="#F2F2F2"/>
<path d="M2.4834 33.3674L2.17438 32.4164L5.02755 31.4893L5.33657 32.4404L2.4834 33.3674Z" fill="#F2F2F2"/>
<path d="M3.07471 34.7617L3.48145 35.6753L6.22208 34.4551L5.81534 33.5415L3.07471 34.7617Z" fill="#F2F2F2"/>
<path d="M6.1709 39.9158L5.58311 39.1068L8.01016 37.3434L8.59795 38.1524L6.1709 39.9158Z" fill="#F2F2F2"/>
<path d="M7.16485 41.0591L7.83398 41.8022L10.0634 39.7949L9.39429 39.0517L7.16485 41.0591Z" fill="#F2F2F2"/>
<path d="M9.68359 43.5046L8.94045 42.8355L10.9478 40.6061L11.691 41.2752L9.68359 43.5046Z" fill="#F2F2F2"/>
<path d="M10.8931 44.4164L11.7021 45.0042L13.4655 42.5771L12.6565 41.9893L10.8931 44.4164Z" fill="#F2F2F2"/>
<path d="M16.1523 47.3318L15.2388 46.925L16.459 44.1844L17.3726 44.5912L16.1523 47.3318Z" fill="#F2F2F2"/>
<path d="M17.5831 47.8253L18.5342 48.1343L19.4612 45.2811L18.5102 44.9721L17.5831 47.8253Z" fill="#F2F2F2"/>
<path d="M20.9883 48.6833L20.0101 48.4754L20.6339 45.541L21.612 45.7489L20.9883 48.6833Z" fill="#F2F2F2"/>
<path d="M22.4918 48.8686L23.4863 48.9731L23.7999 45.9896L22.8054 45.8851L22.4918 48.8686Z" fill="#F2F2F2"/>
<path d="M28.5029 48.7639L27.5084 48.8684L27.1948 45.8849L28.1893 45.7803L28.5029 48.7639Z" fill="#F2F2F2"/>
<path d="M29.9896 48.4755L30.9678 48.2676L30.344 45.3331L29.3659 45.541L29.9896 48.4755Z" fill="#F2F2F2"/>
<path d="M33.3672 47.5164L32.4161 47.8254L31.4891 44.9722L32.4401 44.6632L33.3672 47.5164Z" fill="#F2F2F2"/>
<path d="M34.7613 46.925L35.6748 46.5183L34.4546 43.7777L33.541 44.1844L34.7613 46.925Z" fill="#F2F2F2"/>
<path d="M39.916 43.8286L39.107 44.4164L37.3436 41.9893L38.1527 41.4016L39.916 43.8286Z" fill="#F2F2F2"/>
<path d="M41.0596 42.8354L41.8027 42.1663L39.7953 39.9368L39.0522 40.606L41.0596 42.8354Z" fill="#F2F2F2"/>
<path d="M43.5049 40.3159L42.8358 41.0591L40.6063 39.0517L41.2754 38.3085L43.5049 40.3159Z" fill="#F2F2F2"/>
<path d="M44.4161 39.1069L45.0039 38.2979L42.5769 36.5345L41.9891 37.3435L44.4161 39.1069Z" fill="#F2F2F2"/>
<path d="M47.332 33.8481L46.9253 34.7617L44.1847 33.5415L44.5914 32.6279L47.332 33.8481Z" fill="#F2F2F2"/>
<path d="M47.8257 32.4164L48.1348 31.4653L45.2816 30.5383L44.9726 31.4893L47.8257 32.4164Z" fill="#F2F2F2"/>
<path d="M48.6836 29.0117L48.4757 29.9899L45.5412 29.3661L45.7491 28.388L48.6836 29.0117Z" fill="#F2F2F2"/>
<path d="M48.8681 27.5087L48.9727 26.5142L45.9891 26.2006L45.8846 27.1951L48.8681 27.5087Z" fill="#F2F2F2"/>
<path d="M48.7637 21.4968L48.8682 22.4913L45.8846 22.8049L45.7801 21.8104L48.7637 21.4968Z" fill="#F2F2F2"/>
<path d="M48.4755 20.0101L48.2676 19.032L45.3331 19.6557L45.541 20.6339L48.4755 20.0101Z" fill="#F2F2F2"/>
<path d="M47.5166 16.6326L47.8256 17.5836L44.9725 18.5107L44.6634 17.5596L47.5166 16.6326Z" fill="#F2F2F2"/>
<path d="M46.9253 15.2383L46.5186 14.3247L43.7779 15.5449L44.1847 16.4585L46.9253 15.2383Z" fill="#F2F2F2"/>
<path d="M43.8281 10.0842L44.4159 10.8932L41.9889 12.6566L41.4011 11.8476L43.8281 10.0842Z" fill="#F2F2F2"/>
<path d="M42.8351 8.9409L42.166 8.19775L39.9366 10.2051L40.6057 10.9483L42.8351 8.9409Z" fill="#F2F2F2"/>
<path d="M40.3164 6.49536L41.0596 7.16449L39.0522 9.39393L38.309 8.7248L40.3164 6.49536Z" fill="#F2F2F2"/>
<path d="M39.1069 5.58363L38.2979 4.99585L36.5345 7.4229L37.3435 8.01069L39.1069 5.58363Z" fill="#F2F2F2"/>
<path d="M33.8477 2.66821L34.7612 3.07495L33.541 5.81559L32.6274 5.40885L33.8477 2.66821Z" fill="#F2F2F2"/>
<path d="M32.4169 2.17474L31.4658 1.86572L30.5388 4.71889L31.4898 5.02791L32.4169 2.17474Z" fill="#F2F2F2"/>
<path d="M29.0117 1.31665L29.9899 1.52456L29.3661 4.459L28.388 4.25109L29.0117 1.31665Z" fill="#F2F2F2"/>
</g>
</svg>
